<svg width="14" height="13" viewBox="0 0 14 13" fill="none" xmlns="http://www.w3.org/2000/svg">
<path d="M7 0C3.41594 0 0.5 2.91594 0.5 6.5C0.5 10.0841 3.41594 13 7 13C10.5841 13 13.5 10.0841 13.5 6.5C13.5 2.91594 10.5841 0 7 0ZM10.75 5.69219C10.75 5.76363 10.7216 5.83215 10.6711 5.88266C10.6206 5.93318 10.5521 5.96156 10.4806 5.96156H8.62C8.5667 5.96165 8.51458 5.9459 8.47025 5.91632C8.42591 5.88674 8.39136 5.84466 8.37097 5.79542C8.35059 5.74618 8.34528 5.69199 8.35574 5.63973C8.36619 5.58747 8.39193 5.53949 8.42969 5.50187L9.1225 4.80906L8.9475 4.60563C8.63448 4.28066 8.2458 4.03833 7.81623 3.90029C7.38666 3.76226 6.92957 3.73282 6.48584 3.81462C6.04211 3.89642 5.62557 4.0869 5.27345 4.36903C4.92133 4.65116 4.64461 5.01615 4.46803 5.43137C4.29145 5.84658 4.22051 6.29909 4.26156 6.74842C4.30261 7.19776 4.45437 7.62992 4.70326 8.00627C4.95216 8.38261 5.29043 8.69142 5.68784 8.90508C6.08526 9.11874 6.52942 9.23059 6.98063 9.23063C7.54531 9.2301 8.09599 9.05486 8.55713 8.72895C9.01827 8.40304 9.36727 7.94243 9.55625 7.41031C9.57814 7.34835 9.61203 7.2913 9.65597 7.24242C9.69991 7.19355 9.75305 7.15381 9.81235 7.12548C9.87165 7.09714 9.93595 7.08076 10.0016 7.07728C10.0672 7.07379 10.1329 7.08326 10.1948 7.10516C10.2568 7.12705 10.3139 7.16093 10.3627 7.20488C10.4116 7.24882 10.4513 7.30195 10.4797 7.36125C10.508 7.42055 10.5244 7.48485 10.5279 7.55048C10.5314 7.61611 10.5219 7.68178 10.5 7.74375C10.2721 8.3887 9.8713 8.95859 9.3414 9.39114C8.81149 9.8237 8.17288 10.1023 7.49536 10.1964C6.81783 10.2905 6.12747 10.1966 5.49973 9.92485C4.87198 9.65313 4.33101 9.21407 3.93594 8.65566C3.54086 8.09726 3.3069 7.441 3.2596 6.7586C3.21231 6.07621 3.35351 5.39394 3.66777 4.78638C3.98204 4.17881 4.45727 3.66933 5.04153 3.3136C5.62579 2.95788 6.29659 2.76961 6.98063 2.76937C7.48546 2.76745 7.98534 2.8689 8.44947 3.06748C8.91361 3.26607 9.33217 3.55758 9.67937 3.92406L9.69687 3.94344L9.83156 4.09969L10.2903 3.64094C10.3147 3.61594 10.3439 3.59605 10.3761 3.58243C10.4083 3.5688 10.4429 3.56171 10.4778 3.56156C10.5134 3.56127 10.5487 3.56804 10.5816 3.58147C10.6145 3.5949 10.6445 3.61473 10.6697 3.63981C10.6949 3.66489 10.7149 3.69472 10.7286 3.72758C10.7422 3.76044 10.7491 3.79568 10.7491 3.83125L10.75 5.69219Z" fill="white"/>
</svg>
